HIERARCHY
ROOT Hips
{
	OFFSET 0.000000 0.000000 0.000000
	CHANNELS 6 Xposition Yposition Zposition Zrotation Yrotation Xrotation 
	JOINT LeftUpLeg_virtual
	{
		OFFSET 0.000000 0.000000 0.000000
		CHANNELS 3 Zrotation Yrotation Xrotation
		JOINT LeftUpLeg
		{
			OFFSET 8.479694 -4.795517 -0.379053
			CHANNELS 3 Zrotation Yrotation Xrotation
			JOINT LeftLeg
			{
				OFFSET 0.485052 -32.551468 0.112863
				CHANNELS 3 Zrotation Yrotation Xrotation
				JOINT LeftFoot
				{
					OFFSET 0.438033 -32.635670 -3.012641
					CHANNELS 3 Zrotation Yrotation Xrotation
					JOINT LeftToeBase
					{
						OFFSET 0.970169 -13.225353 11.864223
						CHANNELS 3 Zrotation Yrotation Xrotation
						End Site
						{
							OFFSET 0.000000 0.000000 0.000000
						}
					}
				}
			}
		}
	}
	JOINT RightUpLeg_virtual
	{
		OFFSET 0.000000 0.000000 0.000000
		CHANNELS 3 Zrotation Yrotation Xrotation
		JOINT RightUpLeg
		{
			OFFSET -8.479694 -4.795517 -0.379053
			CHANNELS 3 Zrotation Yrotation Xrotation
			JOINT RightLeg
			{
				OFFSET -0.484100 -32.551483 0.112903
				CHANNELS 3 Zrotation Yrotation Xrotation
				JOINT RightFoot
				{
					OFFSET -0.438985 -32.635651 -3.012681
					CHANNELS 3 Zrotation Yrotation Xrotation
					JOINT RightToeBase
					{
						OFFSET -0.970169 -13.225354 11.864223
						CHANNELS 3 Zrotation Yrotation Xrotation
						End Site
						{
							OFFSET 0.000000 0.000000 0.000000
						}
					}
				}
			}
		}
	}
	JOINT Spine_virtual
	{
		OFFSET 0.000000 0.000000 0.000000
		CHANNELS 3 Zrotation Yrotation Xrotation
		JOINT Spine
		{
			OFFSET 0.000000 7.722015 1.166203
			CHANNELS 3 Zrotation Yrotation Xrotation
			JOINT Spine1
			{
				OFFSET 0.000000 12.024086 0.248766
				CHANNELS 3 Zrotation Yrotation Xrotation
				JOINT Spine2
				{
					OFFSET -0.000000 11.503036 -0.491240
					CHANNELS 3 Zrotation Yrotation Xrotation
					JOINT Neck_virtual
					{
						OFFSET 0.000000 0.000000 0.000000
						CHANNELS 3 Zrotation Yrotation Xrotation
						JOINT Neck
						{
							OFFSET 0.000000 18.430687 -3.123054
							CHANNELS 3 Zrotation Yrotation Xrotation
							JOINT Head
							{
								OFFSET -0.000000 9.051071 1.034021
								CHANNELS 3 Zrotation Yrotation Xrotation
								End Site
								{
									OFFSET 0.000000 0.000000 0.000000
								}
							}
						}
					}
					JOINT LeftShoulder_virtual
					{
						OFFSET 0.000000 0.000000 0.000000
						CHANNELS 3 Zrotation Yrotation Xrotation
						JOINT LeftShoulder
						{
							OFFSET 6.197824 13.665230 -4.064723
							CHANNELS 3 Zrotation Yrotation Xrotation
							JOINT LeftArm
							{
								OFFSET 7.778132 -0.187073 -1.709282
								CHANNELS 3 Zrotation Yrotation Xrotation
								JOINT LeftForeArm
								{
									OFFSET 21.954697 0.000000 -2.041093
									CHANNELS 3 Zrotation Yrotation Xrotation
									JOINT LeftHand
									{
										OFFSET 22.992908 0.000000 -0.870901
										CHANNELS 3 Zrotation Yrotation Xrotation
										End Site
										{
											OFFSET 0.000000 0.000000 0.000000
										}
									}
								}
							}
						}
					}
					JOINT RightShoulder_virtual
					{
						OFFSET 0.000000 0.000000 0.000000
						CHANNELS 3 Zrotation Yrotation Xrotation
						JOINT RightShoulder
						{
							OFFSET -6.197824 13.665230 -4.064723
							CHANNELS 3 Zrotation Yrotation Xrotation
							JOINT RightArm
							{
								OFFSET -7.778132 -0.187073 -1.709282
								CHANNELS 3 Zrotation Yrotation Xrotation
								JOINT RightForeArm
								{
									OFFSET -21.954697 0.000000 -2.041093
									CHANNELS 3 Zrotation Yrotation Xrotation
									JOINT RightHand
									{
										OFFSET -22.992908 0.000000 -0.870901
										CHANNELS 3 Zrotation Yrotation Xrotation
										End Site
										{
											OFFSET 0.000000 0.000000 0.000000
										}
									}
								}
							}
						}
					}
				}
			}
		}
	}
}
MOTION
Frames: 5
Frame Time: 0.033333
4.529978 81.877350 -10.046534 -179.999691 -2.293316 179.784403 -4.493348 1.009925 12.646929 7.633079 -7.042865 -19.756725 2.841427 4.749098 25.540680 -0.454297 -5.773086 -10.570662 0.000000 0.000000 0.000000 -0.734362 -0.179501 13.146954 -4.146686 2.604345 -15.083576 -2.532589 3.793944 24.328403 9.314927 6.486871 -9.555949 0.000000 0.000000 0.000000 1.038931 2.523935 0.787772 -4.518155 -0.304239 -5.970617 -1.442601 -3.186868 5.484948 0.019360 -0.027555 -0.049955 -1.908932 -1.927922 5.741588 0.575212 2.131958 -11.809172 0.000000 0.000000 0.000000 -0.024327 -1.146693 2.892878 15.634324 12.227343 -4.611889 3.180452 -4.616070 -48.982910 -1.367906 -40.266690 -7.924663 0.000000 0.000000 0.000000 -4.652223 0.234011 2.265117 6.253153 -13.569361 -4.106040 9.267648 -9.116940 -51.943981 -3.033571 39.660501 -4.593616 0.000000 0.000000 0.000000 
4.525904 81.877457 -10.057329 179.912592 -2.345964 179.687660 -4.600815 1.047874 12.527558 7.561142 -7.058406 -19.958725 2.644314 4.871425 25.340833 -0.598981 -5.954232 -10.820138 0.000000 0.000000 0.000000 -0.817098 -0.078634 13.177396 -4.262601 2.752660 -15.126842 -2.709550 3.784420 24.328482 9.106365 6.278757 -9.872811 0.000000 0.000000 0.000000 0.990931 2.609283 0.842564 -4.520098 -0.244590 -5.878376 -1.489356 -3.158990 5.518620 -0.039315 -0.030702 -0.072665 -1.818385 -1.802211 5.664911 0.578410 2.304724 -11.964582 0.000000 0.000000 0.000000 0.013616 -1.059955 3.026807 15.630265 12.099854 -4.595543 3.270989 -4.761186 -49.159166 -1.203127 -40.222656 -8.025880 0.000000 0.000000 0.000000 -4.631582 0.343280 2.119050 6.250388 -13.694185 -4.086597 9.227558 -9.266362 -51.706397 -3.275148 39.672423 -4.839897 0.000000 0.000000 0.000000 
4.518155 81.869789 -10.072299 179.969201 -2.303760 179.697182 -4.538301 1.113650 12.541481 7.586977 -7.041089 -19.991455 2.637895 4.919778 25.379590 -0.627018 -5.998287 -10.849604 0.000000 0.000000 0.000000 -0.768166 0.009465 13.179962 -4.233685 2.741320 -15.133208 -2.715650 3.736616 24.407771 9.115745 6.270425 -9.881221 0.000000 0.000000 0.000000 1.008250 2.668431 0.836524 -4.469681 -0.214354 -5.869399 -1.433304 -3.146354 5.522821 -0.008879 -0.016918 -0.098340 -1.867399 -1.919076 5.639382 0.599603 2.240166 -11.918742 0.000000 0.000000 0.000000 0.001254 -1.198137 2.936451 15.636823 11.990179 -4.762043 3.280115 -4.537577 -49.081497 -1.270795 -40.014025 -7.749259 0.000000 0.000000 0.000000 -4.663482 0.219588 2.210744 6.265124 -13.627038 -3.992101 9.079939 -9.391049 -51.687603 -3.290715 39.536813 -4.857152 0.000000 0.000000 0.000000 
4.500344 81.864700 -10.091763 179.971988 -2.332896 179.691636 -4.537510 1.147167 12.534363 7.600249 -7.044206 -19.998386 2.660999 5.002821 25.437006 -0.706320 -6.070781 -10.880351 0.000000 0.000000 0.000000 -0.750399 0.023722 13.159895 -4.244625 2.685952 -15.114877 -2.716686 3.722967 24.482598 9.146050 6.272603 -9.893390 0.000000 0.000000 0.000000 1.003609 2.672122 0.806261 -4.442983 -0.186738 -5.848218 -1.412592 -3.139180 5.531721 -0.004431 -0.015196 -0.114666 -1.816796 -1.872843 5.626435 0.642953 2.080126 -11.859187 0.000000 0.000000 0.000000 0.053364 -1.192566 2.938283 15.621804 11.809797 -4.864502 3.267239 -4.428758 -49.012877 -1.260117 -39.934487 -7.505516 0.000000 0.000000 0.000000 -4.596112 0.224586 2.247196 6.187953 -13.578749 -4.114087 9.028593 -9.608655 -51.893407 -3.099606 39.514960 -4.634576 0.000000 0.000000 0.000000 
4.472481 81.860886 -10.093999 179.956183 -2.397987 179.693657 -4.566498 1.158868 12.494060 7.611415 -7.058115 -20.008199 2.690302 5.092716 25.505525 -0.791297 -6.139507 -10.896147 0.000000 0.000000 0.000000 -0.738471 0.014640 13.120154 -4.281813 2.659093 -15.093118 -2.717904 3.710076 24.555092 9.168886 6.252645 -9.912507 0.000000 0.000000 0.000000 0.999567 2.650072 0.774779 -4.421112 -0.173141 -5.851432 -1.369507 -3.130064 5.492386 -0.001631 -0.042918 -0.132528 -1.734336 -1.777787 5.564030 0.716638 1.917315 -11.787578 0.000000 0.000000 0.000000 0.093028 -1.047012 2.944092 15.637674 11.336988 -4.754251 3.194405 -4.163664 -49.000819 -1.084230 -39.999610 -7.313510 0.000000 0.000000 0.000000 -4.547258 0.273664 2.238317 6.178661 -13.473633 -4.142810 9.016980 -9.930923 -51.694379 -3.312314 39.438100 -4.806380 0.000000 0.000000 0.000000 
